<?xml version="1.0" encoding="UTF-8"?>
<svg version="1.1" xmlns="http://www.w3.org/2000/svg" width="403" height="76">
<path d="M0 0 C132.99 0 265.98 0 403 0 C403 25.08 403 50.16 403 76 C270.01 76 137.02 76 0 76 C0 50.92 0 25.84 0 0 Z " fill="#1F293B" transform="translate(0,0)"/>
<path d="M0 0 C2.27620512 1.51446519 4.02981166 3.08165872 6 5 C4.47291037 8.43595166 2.40072955 11.11912454 0 14 C-2.25157667 12.91590753 -4.26128523 11.81639417 -6.3125 10.375 C-9.87478886 8.5524336 -12.04110649 8.44436582 -16 9 C-19.77034193 11.16923783 -22.37886574 13.95826802 -24 18 C-24.68674621 22.83916519 -24.86427127 27.37626193 -22 31.5 C-21.34 32.325 -20.68 33.15 -20 34 C-20 34.66 -20 35.32 -20 36 C-15.9425741 37.3524753 -12.23777078 37.67655639 -8 37 C-4.71824682 34.47031526 -3.30756223 32.92268669 -2 29 C-5.96 29 -9.92 29 -14 29 C-14 26.03 -14 23.06 -14 20 C-6.08 20 1.84 20 10 20 C10.71276404 34.82549208 10.71276404 34.82549208 6.4140625 40.45703125 C0.87174331 46.50458948 -5.24176566 49.08644571 -13.375 49.5 C-20.49909799 49.25332071 -26.176624 46.93651675 -31.14453125 41.76953125 C-37.88662816 33.35220863 -38.12249382 24.46262916 -37 14 C-35.92616644 10.60514502 -34.51106062 8.49203743 -32 6 C-31.46890625 5.44183594 -30.9378125 4.88367188 -30.390625 4.30859375 C-21.49533717 -4.15825132 -11.08062782 -4.65786654 0 0 Z " fill="#F7F8F8" transform="translate(129,15)"/>
<path d="M0 0 C3.96 0 7.92 0 12 0 C12 17.16 12 34.32 12 52 C7 52 2 52 -3 52 C-3.99 52.495 -3.99 52.495 -5 53 C-9.89633308 53.53718762 -13.8677559 53.52418708 -18.375 51.4375 C-23.36714206 46.80193952 -25.22592526 43.1614669 -25.5 36.4375 C-25.30573712 31.54743451 -24.35016569 28.71234576 -21 25 C-16.51287363 21.04705534 -14.17786782 19.89740144 -8.16796875 19.76953125 C-6 20 -6 20 -1 22 C-0.67 14.74 -0.34 7.48 0 0 Z " fill="#F3F3F4" transform="translate(340,11)"/>
<path d="M0 0 C5.02692254 0.7733727 10.16393516 0.5 15.25 0.5 C15.25 10.73 15.25 20.96 15.25 31.5 C10.25 31.5 5.25 31.5 0.25 31.5 C-0.74 31.995 -0.74 31.995 -1.75 32.5 C-7.16270498 33.0529679 -11.35637234 33.01490212 -15.75 29.5 C-19.65198342 26.15544278 -21.43854241 23.31727551 -22.0078125 18.16796875 C-22.26733725 12.39786857 -21.70277546 8.98693431 -17.75 4.5 C-12.01452694 -0.55267865 -7.45470439 -1.3554008 0 0 Z " fill="#F6F6F7" transform="translate(191.75,31.5)"/>
<path d="M0 0 C4.49811678 2.46123371 7.66486998 4.86960995 9.3125 9.8125 C9.3125 12.1225 9.3125 14.4325 9.3125 16.8125 C2.0525 16.8125 -5.2075 16.8125 -12.6875 16.8125 C-12.3575 18.4625 -12.0275 20.1125 -11.6875 21.8125 C-10.22957116 21.86649736 -8.77107288 21.90529177 -7.3125 21.9375 C-6.50039063 21.96070312 -5.68828125 21.98390625 -4.8515625 22.0078125 C-2.47407757 22.02620051 -2.47407757 22.02620051 -0.6875 19.8125 C2.69241574 20.1682806 5.35538438 21.16965799 8.3125 22.8125 C8.1875 24.5625 8.1875 24.5625 7.3125 26.8125 C0.78570389 31.77854052 -4.67041135 32.59848908 -12.6875 31.8125 C-17.47796964 30.3343997 -21.10630887 27.09615075 -23.80078125 22.93359375 C-25.8507032 18.03003595 -25.81258843 12.61489916 -23.8359375 7.69140625 C-18.39841968 -0.90874948 -9.32893576 -3.00423355 0 0 Z " fill="#F6F6F7" transform="translate(380.6875,32.1875)"/>
<path d="M0 0 C3.96 0 7.92 0 12 0 C12.33 7.26 12.66 14.52 13 22 C19.32917961 22.52174919 19.32917961 22.52174919 22 21 C22.33 14.07 22.66 7.14 23 0 C26.96 0 30.92 0 35 0 C35.10845173 3.52166873 35.18753575 7.03996233 35.25 10.5625 C35.30027344 12.0484668 35.30027344 12.0484668 35.3515625 13.56445312 C35.43634628 19.94443226 35.02196402 23.93259169 31 29 C26.5524344 32.06082464 22.82970243 32.40749819 17.5 32.375 C16.2315625 32.38273437 14.963125 32.39046875 13.65625 32.3984375 C9.61556822 31.95810679 7.34784686 31.30399574 4 29 C-0.6640268 23.12363511 -0.49680696 17.85754427 -0.25 10.5625 C-0.23195313 9.54478516 -0.21390625 8.52707031 -0.1953125 7.47851562 C-0.14849092 4.98526668 -0.07675813 2.49250692 0 0 Z " fill="#F2F2F3" transform="translate(277,32)"/>
<path d="M0 0 C3.96 0 7.92 0 12 0 C12 3.63 12 7.26 12 11 C13.98 11 15.96 11 18 11 C18 13.97 18 16.94 18 20 C16.02 20 14.04 20 12 20 C12.33 23.96 12.66 27.92 13 32 C14.65 32.33 16.3 32.66 18 33 C18.33 35.64 18.66 38.28 19 41 C14.97297943 43.68468038 11.7315637 43.68187737 7 43 C3.41638233 40.86507883 1.45488107 38.87968285 0 35 C-0.13958857 32.37573495 -0.18931369 29.86707253 -0.125 27.25 C-0.11597656 26.55261719 -0.10695312 25.85523437 -0.09765625 25.13671875 C-0.07419888 23.42433042 -0.03833104 21.71211996 0 20 C-1.32 20 -2.64 20 -4 20 C-4 17.03 -4 14.06 -4 11 C-2.68 11 -1.36 11 0 11 C0 7.37 0 3.74 0 0 Z " fill="#F2F3F4" transform="translate(214,21)"/>
<path d="M0 0 C3.63 0 7.26 0 11 0 C11 3.63 11 7.26 11 11 C13.31 11 15.62 11 18 11 C18 13.97 18 16.94 18 20 C16.02 20 14.04 20 12 20 C12 24.29 12 28.58 12 33 C14.475 32.505 14.475 32.505 17 32 C17.66 34.97 18.32 37.94 19 41 C14.77005384 43.8199641 10.96779552 43.79231188 6 43 C2.65374976 40.47323961 1.32022153 38.96066458 0 35 C-0.07029121 32.42734182 -0.09370832 29.88358569 -0.0625 27.3125 C-0.05798828 26.61060547 -0.05347656 25.90871094 -0.04882812 25.18554688 C-0.03706927 23.45699462 -0.01913454 21.72848635 0 20 C-1.32 20 -2.64 20 -4 20 C-4 17.03 -4 14.06 -4 11 C-2.68 11 -1.36 11 0 11 C0 7.37 0 3.74 0 0 Z " fill="#F4F5F6" transform="translate(256,21)"/>
<path d="M0 0 C2.44504276 2.44504276 3.01510126 4.56739633 4.1875 7.8125 C7.05115983 14.8660574 10.00670243 17.21576066 16.9375 20.3125 C17.618125 20.539375 18.29875 20.76625 19 21 C16.65881361 22.56079093 14.7207175 23.58327699 12.1875 24.6875 C7.14567835 27.19448314 3.3285098 30.71704789 1.1875 36.0078125 C0.54620186 38.1093883 0.54620186 38.1093883 0 41 C-0.66 41 -1.32 41 -2 41 C-2.27972656 40.11957031 -2.55945313 39.23914062 -2.84765625 38.33203125 C-5.38126616 30.99189451 -6.96798244 26.57769314 -14 23 C-17.2582888 21.68868374 -17.2582888 21.68868374 -20 21 C-20 20.34 -20 19.68 -20 19 C-18.845 18.649375 -17.69 18.29875 -16.5 17.9375 C-10.58316512 15.68196897 -5.7593852 12.10857666 -2.609375 6.54296875 C-1.64364609 4.38368052 -0.77053638 2.23556936 0 0 Z " fill="#F63031" transform="translate(29,11)"/>
<path d="M0 0 C0.99 0.66 1.98 1.32 3 2 C2.01 4.97 1.02 7.94 0 11 C-0.69867188 10.96519531 -1.39734375 10.93039063 -2.1171875 10.89453125 C-3.02726562 10.86746094 -3.93734375 10.84039062 -4.875 10.8125 C-5.77992188 10.77769531 -6.68484375 10.74289063 -7.6171875 10.70703125 C-8.40351563 10.80371094 -9.18984375 10.90039062 -10 11 C-12.0140956 14.0211434 -12.26836596 14.80660017 -12.4140625 18.23046875 C-12.47207031 19.43413086 -12.47207031 19.43413086 -12.53125 20.66210938 C-12.57765625 21.91217773 -12.57765625 21.91217773 -12.625 23.1875 C-12.68300781 24.4549707 -12.68300781 24.4549707 -12.7421875 25.74804688 C-12.83636279 27.83167524 -12.91926675 29.91580753 -13 32 C-16.63 32 -20.26 32 -24 32 C-24 21.77 -24 11.54 -24 1 C-20.37 1 -16.74 1 -13 1 C-12.67 1.99 -12.34 2.98 -12 4 C-11.319375 3.34 -10.63875 2.68 -9.9375 2 C-6.30586782 -0.47260063 -4.3132535 -0.47925039 0 0 Z " fill="#F7F7F8" transform="translate(167,31)"/>
<path d="M0 0 C3.96 0 7.92 0 12 0 C12 10.23 12 20.46 12 31 C8.04 31 4.08 31 0 31 C0 20.77 0 10.54 0 0 Z " fill="#EDEEEF" transform="translate(236,32)"/>
<path d="M0 0 C0.66 0 1.32 0 2 0 C2.20753906 0.61488281 2.41507813 1.22976562 2.62890625 1.86328125 C4.35419581 6.69048151 4.35419581 6.69048151 7.82421875 10.265625 C9.93716815 11.18177812 9.93716815 11.18177812 13 12 C11 14 11 14 8.0625 15.4375 C3.28389976 17.87556135 1.77191989 19.9568434 0 25 C-2 22 -2 22 -2.875 19.5 C-4.73379964 15.36933414 -8.01758761 13.84897718 -12 12 C-10.03761331 10.6917422 -8.03721846 9.43837744 -6 8.25 C-2.69602635 5.77201976 -1.54541324 3.77767682 0 0 Z " fill="#EA3031" transform="translate(55,41)"/>
<path d="M0 0 C2.81374263 1.94797566 3.79326562 3.10415102 4.5625 6.4375 C3.7391072 10.18851166 1.98886562 11.67532674 -1 14 C-3.5625 14.5625 -3.5625 14.5625 -6 14 C-8.3125 12.4375 -8.3125 12.4375 -10 10 C-10.42519574 6.53769185 -10.63902633 4.1652833 -8.9375 1.0625 C-5.8347167 -0.63902633 -3.46230815 -0.42519574 0 0 Z " fill="#293445" transform="translate(192,41)"/>
<path d="M0 0 C1.9375 1.0625 1.9375 1.0625 3 3 C3.504958 6.9675271 3.61854451 9.10654682 1.3125 12.4375 C-1 14 -1 14 -3.5 14.5625 C-6 14 -6 14 -8.3125 11.875 C-10.27372261 8.53365777 -10.57977821 6.80997107 -10 3 C-7.72054654 -1.02256493 -4.21158603 -0.45124136 0 0 Z " fill="#252F41" transform="translate(337,41)"/>
<path d="M0 0 C2.7912125 1.98322993 3.82597224 3.12986121 4.5 6.5 C3.82597224 9.87013879 2.7912125 11.01677007 0 13 C-3.17235276 13.45319325 -5.06487736 13.52990283 -7.875 11.9375 C-9.64273274 8.8930714 -9.36823916 6.4368988 -9 3 C-6.84532543 -0.71082843 -4.00794956 -0.57256422 0 0 Z " fill="#F2F3F4" transform="translate(245,13)"/>
<path d="M0 0 C1.74271938 2.297221 3.39911152 4.59866729 5 7 C5.99 7.66 6.98 8.32 8 9 C7.236875 9.391875 6.47375 9.78375 5.6875 10.1875 C2.75283929 12.16668978 1.59873102 13.8866817 0 17 C-1.20628008 14.66785852 -2.1654738 12.50357861 -3 10 C-4.65 9.67 -6.3 9.34 -8 9 C-8 8.34 -8 7.68 -8 7 C-7.05125 6.5875 -6.1025 6.175 -5.125 5.75 C-1.99283376 3.9959869 -1.13499394 3.29148243 0 0 Z " fill="#E73032" transform="translate(66,17)"/>
<path d="M0 0 C2.9375 0.1875 2.9375 0.1875 6 1 C6.66 2.32 7.32 3.64 8 5 C4.37 5 0.74 5 -3 5 C-1 1 -1 1 0 0 Z " fill="#313B4B" transform="translate(371,38)"/>
</svg>
