<?xml version="1.0" standalone="no"?>
<!DOCTYPE svg PUBLIC "-//W3C//DTD SVG 20010904//EN"
 "http://www.w3.org/TR/2001/REC-SVG-20010904/DTD/svg10.dtd">
<svg version="1.0" xmlns="http://www.w3.org/2000/svg"
 width="670.000000pt" height="180.000000pt" viewBox="0 0 670.000000 180.000000"
 preserveAspectRatio="xMidYMid meet">

<g transform="translate(0.000000,180.000000) scale(0.100000,-0.100000)"
fill="#000000" stroke="none">
<path d="M0 900 l0 -900 3350 0 3350 0 0 900 0 900 -3350 0 -3350 0 0 -900z
m5370 85 l0 -485 -100 0 -100 0 0 32 0 31 -22 -20 c-92 -84 -251 -81 -351 7
-121 107 -138 303 -38 436 54 71 126 106 221 106 62 0 82 -5 132 -30 l58 -31
0 220 0 219 100 0 100 0 0 -485z m-4285 439 c53 -14 157 -76 188 -112 23 -25
20 -30 -56 -112 l-58 -63 -42 41 c-127 125 -304 84 -380 -87 -30 -66 -29 -188
2 -256 61 -136 188 -190 309 -129 52 26 84 64 96 116 l6 27 -107 3 -108 3 -3
83 -3 82 221 0 220 0 0 -93 c0 -102 -17 -176 -57 -244 -56 -95 -180 -174 -309
-195 -232 -39 -457 125 -510 370 -17 84 -17 130 0 214 21 94 62 173 128 240
117 121 285 161 463 112z m2311 -28 c29 -29 34 -41 34 -81 0 -40 -5 -52 -34
-81 -29 -29 -41 -34 -81 -34 -40 0 -52 5 -81 34 -29 29 -34 41 -34 81 0 40 5
52 34 81 29 29 41 34 81 34 40 0 52 -5 81 -34z m2450 -1 c-7 -18 9 -19 70 -4
55 14 139 -1 178 -32 44 -35 36 -73 -30 -136 -44 -43 -54 -58 -49 -76 20 -66
61 -135 113 -190 33 -34 64 -71 69 -82 13 -26 17 -132 5 -139 -5 -3 -22 8 -38
25 -32 34 -94 69 -121 69 -53 0 -90 -75 -78 -156 6 -41 9 -44 43 -49 57 -9
123 -36 129 -51 3 -8 12 -14 19 -14 12 0 12 -4 4 -21 -14 -26 -64 -56 -115
-70 -22 -6 -50 -16 -62 -22 -13 -6 -26 -7 -30 -4 -3 4 1 7 10 7 10 0 17 4 17
9 0 16 -43 41 -70 41 -106 0 -228 106 -304 262 -92 188 -85 327 22 485 42 62
101 117 157 146 39 21 69 22 61 2z m-2846 -210 l0 -105 60 0 60 0 0 -80 0 -80
-61 0 -61 0 4 -115 c2 -92 6 -118 20 -131 15 -15 21 -16 44 -5 15 6 28 10 30
9 1 -2 13 -38 25 -81 27 -90 27 -89 -61 -108 -40 -9 -69 -9 -107 -1 -64 13
-94 34 -125 87 -20 36 -23 56 -26 193 l-4 152 -39 0 -39 0 0 80 0 80 40 0 40
0 0 105 0 105 100 0 100 0 0 -105z m790 0 l0 -105 60 0 61 0 -3 -77 -3 -78
-57 -3 -58 -3 0 -114 c0 -124 11 -152 54 -139 11 3 25 7 30 8 5 0 19 -33 32
-74 28 -88 25 -92 -61 -111 -107 -24 -192 10 -234 93 -20 42 -24 67 -29 193
l-5 145 -38 0 -39 0 0 80 0 80 40 0 40 0 0 105 0 105 105 0 105 0 0 -105z
m-1850 -115 c11 -6 20 -13 20 -16 0 -2 -18 -40 -40 -84 l-40 -79 -35 14 c-44
19 -88 19 -125 0 -53 -27 -60 -56 -60 -240 l0 -165 -100 0 -100 0 0 290 0 290
100 0 100 0 0 -35 0 -36 40 32 c67 54 170 66 240 29z m456 -14 l44 -25 0 25
c0 24 1 24 100 24 l100 0 0 -290 0 -290 -100 0 -100 0 0 32 0 31 -22 -20 c-48
-43 -90 -58 -168 -57 -64 0 -83 4 -128 29 -102 56 -155 149 -154 275 0 119 51
210 150 272 68 42 197 39 278 -6z m1014 -266 l0 -290 -100 0 -100 0 0 290 0
290 100 0 100 0 0 -290z m771 148 c0 -185 9 -235 43 -265 20 -17 39 -23 77
-23 92 0 109 42 109 273 l0 157 100 0 100 0 0 -193 c0 -237 -9 -277 -75 -335
-58 -51 -116 -67 -240 -66 -147 0 -222 29 -272 102 -34 51 -43 118 -43 312 l0
180 100 0 100 0 1 -142z"/>
<path d="M4950 882 c-36 -35 -40 -45 -40 -88 0 -54 25 -105 61 -124 31 -17 99
-15 136 4 46 23 66 68 60 129 -6 71 -46 109 -121 115 -54 4 -57 3 -96 -36z"/>
<path d="M2250 907 c-60 -30 -85 -112 -56 -182 37 -88 189 -90 233 -4 18 34
16 106 -3 139 -33 55 -115 77 -174 47z"/>
</g>
</svg>
