<?xml version="1.0" encoding="UTF-8"?>
<svg version="1.1" xmlns="http://www.w3.org/2000/svg" width="1080" height="1080">
<path d="M0 0 C3.66027942 1.95782387 5.22270926 3.99481672 6.5625 7.8125 C7.06459266 9.53514942 7.54118165 11.26532315 8 13 C8.27199219 14.00417969 8.54398438 15.00835937 8.82421875 16.04296875 C9.48007705 18.49205985 10.12912902 20.94242306 10.7734375 23.39453125 C13.3924326 33.2966371 16.20189632 43.14736848 19 53 C19.26071289 53.92635254 19.52142578 54.85270508 19.79003906 55.80712891 C22.47312599 65.29937974 25.43275499 74.48364953 29.31762695 83.55517578 C31.675098 89.08649053 33.72401111 94.69260612 35.6875 100.375 C35.98317871 101.22900391 36.27885742 102.08300781 36.58349609 102.96289062 C37.7699975 106.40206411 38.94710293 109.84426806 40.1171875 113.2890625 C42.1157594 119.02050423 44.59339887 124.31957175 47.37109375 129.71484375 C49.17066052 133.34418584 50.78082632 137.02741333 52.375 140.75 C58.20624309 154.24227344 65.03079746 166.99436596 72.47265625 179.6640625 C74.41089 182.96833677 76.26823439 186.30228499 78.0625 189.6875 C90.08553797 211.94729601 105.44325483 236.7783726 124.91015625 253.21875 C126.34061144 254.43797909 127.74349808 255.69009766 129.12109375 256.96875 C133.90647818 261.40440045 138.83132492 264.99196764 144.421875 268.359375 C147.11611464 270.07389114 149.5146027 271.99712975 152 274 C172.54160763 288.43544432 195.81811312 299.61365472 218.75 309.6875 C219.42487457 309.98447784 220.09974915 310.28145569 220.79507446 310.58743286 C236.88018316 317.62833713 253.3654176 323.4100241 270 329 C271.1226123 329.37801758 272.24522461 329.75603516 273.40185547 330.14550781 C277.8694182 331.6460952 282.34078699 333.1332053 286.8203125 334.59765625 C298.53715647 338.49376489 298.53715647 338.49376489 301 341.1875 C302.2852588 344.80229036 303.0795439 348.25000539 302 352 C298.06305929 356.7969728 294.53503748 358.17859714 288.75390625 359.6484375 C287.95462708 359.86656097 287.1553479 360.08468445 286.33184814 360.30941772 C284.62712951 360.77290267 282.92037171 361.22894187 281.21182251 361.67810059 C277.64743618 362.61570586 274.0935671 363.59040436 270.53886414 364.56396484 C268.77885548 365.04586172 267.01836883 365.52601639 265.25740051 366.00439453 C255.39948946 368.68769997 245.68294275 371.74578195 236 375 C235.19256348 375.26699707 234.38512695 375.53399414 233.55322266 375.80908203 C219.40495018 380.50280847 205.68200879 386.09419784 192 392 C191.15501953 392.36319336 190.31003906 392.72638672 189.43945312 393.10058594 C178.5868993 397.79228225 167.95855267 402.9224691 157.375 408.1875 C155.61397949 409.06100098 155.61397949 409.06100098 153.81738281 409.95214844 C147.02215652 413.36237769 140.46477979 417.0021563 134 421 C132.7112137 421.7721716 131.42095952 422.54190122 130.12890625 423.30859375 C116.64337988 431.34967589 103.87052136 439.48090459 92.1796875 450.0390625 C90.16629617 451.85039305 88.12037855 453.61464606 86.0625 455.375 C78.33800204 462.16272981 71.62771718 469.17350655 65.73046875 477.61328125 C63.73231944 480.36919374 61.40485505 482.59514495 59 485 C56.23361397 488.59630184 53.61703713 492.29419552 51 496 C50.38640625 496.85335938 49.7728125 497.70671875 49.140625 498.5859375 C45.77052326 503.31302711 42.65706845 508.11693651 39.72265625 513.125 C38.40831077 515.31855617 37.06591248 517.47485033 35.68359375 519.625 C29.78664993 528.81605136 24.65277362 538.12512602 20 548 C19.54334961 548.96260742 19.08669922 549.92521484 18.61621094 550.91699219 C11.90935389 565.09533168 5.58124804 579.34230988 0 594 C-0.39429199 595.02174316 -0.78858398 596.04348633 -1.19482422 597.09619141 C-6.91070702 611.94078515 -11.92920974 626.82540715 -16.203125 642.14550781 C-17.52378264 646.87624589 -18.87582668 651.59705606 -20.25 656.3125 C-20.48428711 657.149021 -20.71857422 657.98554199 -20.95996094 658.84741211 C-21.29688965 659.99995483 -21.29688965 659.99995483 -21.640625 661.17578125 C-21.83172852 661.84520752 -22.02283203 662.51463379 -22.21972656 663.2043457 C-23.15584329 665.35864436 -24.17394891 666.53002052 -26 668 C-28.9609375 668.43359375 -28.9609375 668.43359375 -32.375 668.4375 C-33.49648438 668.45683594 -34.61796875 668.47617187 -35.7734375 668.49609375 C-39.83330899 667.87187622 -41.27035816 667.08200524 -44 664 C-45.33218903 660.9392461 -46.13135904 657.79617445 -46.9375 654.5625 C-47.44489244 652.66395019 -47.95271729 650.76551589 -48.4609375 648.8671875 C-48.71456055 647.89491211 -48.96818359 646.92263672 -49.22949219 645.92089844 C-50.44201342 641.32438259 -51.75237003 636.75695689 -53.0625 632.1875 C-53.39399048 631.01006226 -53.39399048 631.01006226 -53.73217773 629.80883789 C-57.89375798 615.13316079 -62.69127835 600.63501821 -67.40136719 586.12841797 C-68.04906521 584.13042874 -68.69458322 582.13173145 -69.33789062 580.13232422 C-73.26968974 567.91451872 -77.44990993 555.8750842 -82.22216797 543.95996094 C-83.38391731 541.03261515 -84.48973962 538.08478577 -85.59765625 535.13671875 C-91.71855534 519.04006689 -98.69822228 503.61225815 -106.39477539 488.21801758 C-107.45052272 486.10154525 -108.49435583 483.97908043 -109.52514648 481.8503418 C-112.76534403 475.20382356 -116.35637559 468.975731 -120.4375 462.8125 C-120.97181641 461.98814453 -121.50613281 461.16378906 -122.05664062 460.31445312 C-127.63006123 451.81047042 -133.77639532 443.95943838 -140.75 436.5625 C-141.35924316 435.91563232 -141.96848633 435.26876465 -142.59619141 434.60229492 C-171.90174816 403.7735245 -211.59523526 381.97406814 -250.60009766 366 C-252.83885968 365.06714453 -255.05162328 364.09229021 -257.26171875 363.09375 C-276.59052558 354.45454419 -297.09658934 348.27656517 -317.3359375 342.1484375 C-318.07775772 341.9224588 -318.81957794 341.6964801 -319.58387756 341.46365356 C-323.11279509 340.38923056 -326.64467666 339.32922449 -330.1862793 338.29736328 C-331.43578369 337.9207959 -332.68528809 337.54422852 -333.97265625 337.15625 C-335.06843994 336.83462891 -336.16422363 336.51300781 -337.29321289 336.18164062 C-340.29928717 334.86934699 -341.39858527 333.82762533 -343 331 C-343.43359375 328.34375 -343.43359375 328.34375 -343.4375 325.5 C-343.46650391 324.09234375 -343.46650391 324.09234375 -343.49609375 322.65625 C-342.84248684 319.15662243 -341.84346413 318.12109541 -339 316 C-336.61243825 315.06445356 -334.40011923 314.3388759 -331.9375 313.6875 C-331.20926025 313.48294189 -330.48102051 313.27838379 -329.73071289 313.06762695 C-325.07758809 311.77834444 -320.3998438 310.5892592 -315.71875 309.40625 C-268.12219887 297.36898249 -218.56391379 278.81204963 -178.49609375 249.7578125 C-176.09045491 248.06370064 -173.63077164 246.4834246 -171.13867188 244.92016602 C-162.38922732 239.42511757 -154.15970403 233.33114919 -146 227 C-145.04480469 226.26136719 -144.08960938 225.52273438 -143.10546875 224.76171875 C-137.3755809 220.20014387 -131.98292155 215.30009462 -126.625 210.3125 C-125.94630859 209.68239014 -125.26761719 209.05228027 -124.56835938 208.40307617 C-121.56559744 205.57512746 -118.73024611 202.76409134 -116.1484375 199.54296875 C-115.43945312 198.70378906 -114.73046875 197.86460937 -114 197 C-113.34 197 -112.68 197 -112 197 C-111.59587891 196.09894531 -111.59587891 196.09894531 -111.18359375 195.1796875 C-109.99196956 192.98521126 -108.89932918 191.78667921 -107.0625 190.125 C-98.51025155 181.76632096 -91.67279265 171.68234937 -84.8125 161.9375 C-84.2548999 161.14770752 -83.6972998 160.35791504 -83.12280273 159.54418945 C-67.75433519 137.47693509 -54.57401455 113.70559294 -44 89 C-42.1130036 84.652061 -40.19994319 80.34628157 -38.01953125 76.13671875 C-35.51203679 71.18163585 -33.61243023 66.01570857 -31.6875 60.8125 C-31.29868652 59.76892334 -30.90987305 58.72534668 -30.50927734 57.65014648 C-27.04291627 48.2691206 -23.83872168 38.80967099 -20.7512207 29.2980957 C-19.99014615 26.96985561 -19.20902137 24.64899043 -18.42578125 22.328125 C-16.83394532 17.57186491 -15.49432938 12.75218047 -14.16015625 7.91796875 C-12.8937422 4.73274553 -11.64258939 3.15117808 -9 1 C-5.66660588 -0.11113137 -3.49519344 -0.34951934 0 0 Z " fill="#FE3131" transform="translate(556,183)"/>
<path d="M0 0 C3.66027942 1.95782387 5.22270926 3.99481672 6.5625 7.8125 C7.06459266 9.53514942 7.54118165 11.26532315 8 13 C8.27199219 14.00417969 8.54398438 15.00835937 8.82421875 16.04296875 C9.48007705 18.49205985 10.12912902 20.94242306 10.7734375 23.39453125 C13.3924326 33.2966371 16.20189632 43.14736848 19 53 C19.26071289 53.92635254 19.52142578 54.85270508 19.79003906 55.80712891 C22.47312599 65.29937974 25.43275499 74.48364953 29.31762695 83.55517578 C31.675098 89.08649053 33.72401111 94.69260612 35.6875 100.375 C35.98317871 101.22900391 36.27885742 102.08300781 36.58349609 102.96289062 C37.7699975 106.40206411 38.94710293 109.84426806 40.1171875 113.2890625 C42.1157594 119.02050423 44.59339887 124.31957175 47.37109375 129.71484375 C49.17066052 133.34418584 50.78082632 137.02741333 52.375 140.75 C58.20624309 154.24227344 65.03079746 166.99436596 72.47265625 179.6640625 C74.41089 182.96833677 76.26823439 186.30228499 78.0625 189.6875 C90.08553797 211.94729601 105.44325483 236.7783726 124.91015625 253.21875 C126.34061144 254.43797909 127.74349808 255.69009766 129.12109375 256.96875 C133.90647818 261.40440045 138.83132492 264.99196764 144.421875 268.359375 C147.11611464 270.07389114 149.5146027 271.99712975 152 274 C172.54160763 288.43544432 195.81811312 299.61365472 218.75 309.6875 C219.42487457 309.98447784 220.09974915 310.28145569 220.79507446 310.58743286 C236.88018316 317.62833713 253.3654176 323.4100241 270 329 C271.1226123 329.37801758 272.24522461 329.75603516 273.40185547 330.14550781 C277.8694182 331.6460952 282.34078699 333.1332053 286.8203125 334.59765625 C298.53715647 338.49376489 298.53715647 338.49376489 301 341.1875 C302.2852588 344.80229036 303.0795439 348.25000539 302 352 C298.06305929 356.7969728 294.53503748 358.17859714 288.75390625 359.6484375 C287.95462708 359.86656097 287.1553479 360.08468445 286.33184814 360.30941772 C284.62712951 360.77290267 282.92037171 361.22894187 281.21182251 361.67810059 C277.64743618 362.61570586 274.0935671 363.59040436 270.53886414 364.56396484 C268.77885548 365.04586172 267.01836883 365.52601639 265.25740051 366.00439453 C255.39948946 368.68769997 245.68294275 371.74578195 236 375 C235.19256348 375.26699707 234.38512695 375.53399414 233.55322266 375.80908203 C219.40495018 380.50280847 205.68200879 386.09419784 192 392 C191.15501953 392.36319336 190.31003906 392.72638672 189.43945312 393.10058594 C178.5868993 397.79228225 167.95855267 402.9224691 157.375 408.1875 C155.61397949 409.06100098 155.61397949 409.06100098 153.81738281 409.95214844 C147.02215652 413.36237769 140.46477979 417.0021563 134 421 C132.7112137 421.7721716 131.42095952 422.54190122 130.12890625 423.30859375 C116.64337988 431.34967589 103.87052136 439.48090459 92.1796875 450.0390625 C90.16629617 451.85039305 88.12037855 453.61464606 86.0625 455.375 C78.33800204 462.16272981 71.62771718 469.17350655 65.73046875 477.61328125 C63.73231944 480.36919374 61.40485505 482.59514495 59 485 C56.23361397 488.59630184 53.61703713 492.29419552 51 496 C50.38640625 496.85335938 49.7728125 497.70671875 49.140625 498.5859375 C45.77052326 503.31302711 42.65706845 508.11693651 39.72265625 513.125 C38.40831077 515.31855617 37.06591248 517.47485033 35.68359375 519.625 C29.78664993 528.81605136 24.65277362 538.12512602 20 548 C19.54334961 548.96260742 19.08669922 549.92521484 18.61621094 550.91699219 C11.90935389 565.09533168 5.58124804 579.34230988 0 594 C-0.39429199 595.02174316 -0.78858398 596.04348633 -1.19482422 597.09619141 C-6.91070702 611.94078515 -11.92920974 626.82540715 -16.203125 642.14550781 C-17.52378264 646.87624589 -18.87582668 651.59705606 -20.25 656.3125 C-20.48428711 657.149021 -20.71857422 657.98554199 -20.95996094 658.84741211 C-21.29688965 659.99995483 -21.29688965 659.99995483 -21.640625 661.17578125 C-21.83172852 661.84520752 -22.02283203 662.51463379 -22.21972656 663.2043457 C-23.15584329 665.35864436 -24.17394891 666.53002052 -26 668 C-28.9609375 668.43359375 -28.9609375 668.43359375 -32.375 668.4375 C-33.49648438 668.45683594 -34.61796875 668.47617187 -35.7734375 668.49609375 C-39.83330899 667.87187622 -41.27035816 667.08200524 -44 664 C-45.33218903 660.9392461 -46.13135904 657.79617445 -46.9375 654.5625 C-47.44489244 652.66395019 -47.95271729 650.76551589 -48.4609375 648.8671875 C-48.71456055 647.89491211 -48.96818359 646.92263672 -49.22949219 645.92089844 C-50.44201342 641.32438259 -51.75237003 636.75695689 -53.0625 632.1875 C-53.39399048 631.01006226 -53.39399048 631.01006226 -53.73217773 629.80883789 C-57.89375798 615.13316079 -62.69127835 600.63501821 -67.40136719 586.12841797 C-68.04906521 584.13042874 -68.69458322 582.13173145 -69.33789062 580.13232422 C-73.26968974 567.91451872 -77.44990993 555.8750842 -82.22216797 543.95996094 C-83.38391731 541.03261515 -84.48973962 538.08478577 -85.59765625 535.13671875 C-91.71855534 519.04006689 -98.69822228 503.61225815 -106.39477539 488.21801758 C-107.45052272 486.10154525 -108.49435583 483.97908043 -109.52514648 481.8503418 C-112.76534403 475.20382356 -116.35637559 468.975731 -120.4375 462.8125 C-120.97181641 461.98814453 -121.50613281 461.16378906 -122.05664062 460.31445312 C-127.63006123 451.81047042 -133.77639532 443.95943838 -140.75 436.5625 C-141.35924316 435.91563232 -141.96848633 435.26876465 -142.59619141 434.60229492 C-171.90174816 403.7735245 -211.59523526 381.97406814 -250.60009766 366 C-252.83885968 365.06714453 -255.05162328 364.09229021 -257.26171875 363.09375 C-276.59052558 354.45454419 -297.09658934 348.27656517 -317.3359375 342.1484375 C-318.07775772 341.9224588 -318.81957794 341.6964801 -319.58387756 341.46365356 C-323.11279509 340.38923056 -326.64467666 339.32922449 -330.1862793 338.29736328 C-331.43578369 337.9207959 -332.68528809 337.54422852 -333.97265625 337.15625 C-335.06843994 336.83462891 -336.16422363 336.51300781 -337.29321289 336.18164062 C-340.29928717 334.86934699 -341.39858527 333.82762533 -343 331 C-343.43359375 328.34375 -343.43359375 328.34375 -343.4375 325.5 C-343.46650391 324.09234375 -343.46650391 324.09234375 -343.49609375 322.65625 C-342.84248684 319.15662243 -341.84346413 318.12109541 -339 316 C-336.61243825 315.06445356 -334.40011923 314.3388759 -331.9375 313.6875 C-331.20926025 313.48294189 -330.48102051 313.27838379 -329.73071289 313.06762695 C-325.07758809 311.77834444 -320.3998438 310.5892592 -315.71875 309.40625 C-268.12219887 297.36898249 -218.56391379 278.81204963 -178.49609375 249.7578125 C-176.09045491 248.06370064 -173.63077164 246.4834246 -171.13867188 244.92016602 C-162.38922732 239.42511757 -154.15970403 233.33114919 -146 227 C-145.04480469 226.26136719 -144.08960938 225.52273438 -143.10546875 224.76171875 C-137.3755809 220.20014387 -131.98292155 215.30009462 -126.625 210.3125 C-125.94630859 209.68239014 -125.26761719 209.05228027 -124.56835938 208.40307617 C-121.56559744 205.57512746 -118.73024611 202.76409134 -116.1484375 199.54296875 C-115.43945312 198.70378906 -114.73046875 197.86460937 -114 197 C-113.34 197 -112.68 197 -112 197 C-111.59587891 196.09894531 -111.59587891 196.09894531 -111.18359375 195.1796875 C-109.99196956 192.98521126 -108.89932918 191.78667921 -107.0625 190.125 C-98.51025155 181.76632096 -91.67279265 171.68234937 -84.8125 161.9375 C-84.2548999 161.14770752 -83.6972998 160.35791504 -83.12280273 159.54418945 C-67.75433519 137.47693509 -54.57401455 113.70559294 -44 89 C-42.1130036 84.652061 -40.19994319 80.34628157 -38.01953125 76.13671875 C-35.51203679 71.18163585 -33.61243023 66.01570857 -31.6875 60.8125 C-31.29868652 59.76892334 -30.90987305 58.72534668 -30.50927734 57.65014648 C-27.04291627 48.2691206 -23.83872168 38.80967099 -20.7512207 29.2980957 C-19.99014615 26.96985561 -19.20902137 24.64899043 -18.42578125 22.328125 C-16.83394532 17.57186491 -15.49432938 12.75218047 -14.16015625 7.91796875 C-12.8937422 4.73274553 -11.64258939 3.15117808 -9 1 C-5.66660588 -0.11113137 -3.49519344 -0.34951934 0 0 Z M-12 7 C-13.33630793 10.15512845 -14.28615291 13.40236387 -15.25 16.6875 C-15.86706726 18.6940474 -16.48425932 20.70055642 -17.1015625 22.70703125 C-18.03429304 25.79115203 -18.96290467 28.87647783 -19.88964844 31.96240234 C-34.55802355 80.49770542 -56.55216568 128.32010391 -87 169 C-87.40814941 169.55091309 -87.81629883 170.10182617 -88.23681641 170.66943359 C-93.31974742 177.51740894 -98.6557613 184.0280645 -104.48046875 190.26953125 C-106.46047384 192.41530421 -108.3786673 194.5870933 -110.28515625 196.796875 C-119.87278276 207.79015272 -130.4087938 218.14256885 -142 227 C-143.23779556 227.97683097 -144.47470778 228.95478188 -145.7109375 229.93359375 C-170.93368178 249.74261689 -198.40282676 265.6228127 -227 280 C-227.8647998 280.43973145 -228.72959961 280.87946289 -229.62060547 281.33251953 C-243.62380044 288.42190683 -258.20418758 293.80546353 -273 299 C-274.14662109 299.40283203 -275.29324219 299.80566406 -276.47460938 300.22070312 C-295.353178 306.79878794 -314.47577237 312.88450703 -334.2578125 316.06640625 C-337.84547555 317.28784709 -339.59237067 319.11518288 -342 322 C-342.66282959 325.53509116 -342.38943034 327.26480272 -340.7109375 330.43359375 C-336.50855694 334.41192808 -331.53808078 335.46081303 -326.0625 337.0625 C-324.92167969 337.4119165 -323.78085937 337.76133301 -322.60546875 338.12133789 C-319.40837861 339.0977947 -316.20588447 340.05288213 -313 341 C-268.63797751 354.19667487 -221.17093885 372.20013193 -183 399 C-181.66596346 399.90713135 -180.33128655 400.8133214 -178.99609375 401.71875 C-157.02608491 416.76012348 -135.31085478 434.24436297 -121 457 C-120.64212402 457.55623047 -120.28424805 458.11246094 -119.91552734 458.68554688 C-85.11747115 513.05459037 -64.56529044 579.62350964 -48.23583984 641.70532227 C-45.54908347 654.78321243 -45.54908347 654.78321243 -39.0390625 665.81640625 C-36.10816875 667.51767216 -34.3333765 667.54422473 -31 667 C-25.5278098 662.85517988 -24.49914813 658.09360824 -22.875 651.75 C-13.53736602 617.77869801 -1.24979962 584.76383133 14 553 C14.47550293 552.00516602 14.95100586 551.01033203 15.44091797 549.98535156 C27.66166405 524.56391317 41.74282249 499.62883701 60 478 C60.76957031 477.04738281 61.53914063 476.09476563 62.33203125 475.11328125 C114.31213283 411.2959292 205.95801246 376.16312766 284.33374023 358.19262695 C285.94164429 357.81883911 285.94164429 357.81883911 287.58203125 357.4375 C288.51249268 357.22996094 289.4429541 357.02242187 290.40161133 356.80859375 C293.28727615 355.9106024 295.51636884 354.71446621 298 353 C299.56700442 349.86599115 299.85164561 346.36844905 299 343 C295.53432218 339.78105805 292.51218382 338.26389072 287.98828125 336.984375 C286.7768042 336.62875488 285.56532715 336.27313477 284.31713867 335.90673828 C283.66764252 335.71984436 283.01814636 335.53295044 282.34896851 335.34039307 C232.88501771 321.00028739 182.78771097 300.46564792 141 270 C139.99453125 269.29230469 138.9890625 268.58460938 137.953125 267.85546875 C123.37649961 257.21308181 110.21359551 243.88113723 100 229 C99.41541016 228.15195801 98.83082031 227.30391602 98.22851562 226.43017578 C67.04989789 180.94196856 43.8572113 132.29670375 25.25366211 80.48779297 C24.40438397 78.12503006 23.5482113 75.76473599 22.68579102 73.40673828 C20.05567909 66.16935831 17.71096213 58.9287377 15.6875 51.5 C15.25473755 49.94394043 15.25473755 49.94394043 14.81323242 48.35644531 C13.30599 42.90350208 11.84690379 37.44002055 10.4438324 31.95947266 C9.74332413 29.22386066 9.03485458 26.49032532 8.32705688 23.7565918 C7.82173898 21.78602879 7.33094705 19.81221712 6.84057617 17.83789062 C6.52838135 16.62810547 6.21618652 15.41832031 5.89453125 14.171875 C5.62487549 13.1003418 5.35521973 12.02880859 5.07739258 10.92480469 C3.87196729 7.65242876 2.36928431 5.54282236 0 3 C-1.96892531 2.25945239 -1.96892531 2.25945239 -4 2.4375 C-4.66 2.43621094 -5.32 2.43492187 -6 2.43359375 C-9.05131823 3.29773661 -10.06657832 4.45561707 -12 7 Z " fill="#392231" transform="translate(556,183)"/>
<path d="M0 0 C1.93408708 5.88515068 0.06818784 12.43634918 -2.25 18 C-2.8275 18.99 -3.405 19.98 -4 21 C-5.06554485 22.95667827 -6.12778818 24.9151565 -7.1875 26.875 C-8.12397477 28.58389556 -9.06113338 30.29241735 -10 32 C-11 30 -11 30 -10.21142578 27.234375 C-9.58469971 25.50960937 -9.58469971 25.50960937 -8.9453125 23.75 C-8.72430878 23.13608398 -8.50330505 22.52216797 -8.27560425 21.88964844 C-7.56579802 19.92379095 -6.8453918 17.96199979 -6.125 16 C-5.64646841 14.67732446 -5.16859553 13.3544104 -4.69140625 12.03125 C-1.2137109 2.42742179 -1.2137109 2.42742179 0 0 Z " fill="#402230" transform="translate(551,778)"/>
<path d="M0 0 C0 3 0 3 -2.5 5.6875 C-3.325 6.450625 -4.15 7.21375 -5 8 C-4.34 8.66 -3.68 9.32 -3 10 C-5.42166074 12.56004135 -7.55241524 14.74423728 -10.625 16.5 C-13.44536664 18.2812842 -14.35133939 20.15231348 -16 23 C-16.99 23.33 -17.98 23.66 -19 24 C-17.62267001 19.89715986 -15.76356341 17.33157616 -12.8125 14.1875 C-12.01457031 13.32640625 -11.21664062 12.4653125 -10.39453125 11.578125 C-9.60433594 10.72734375 -8.81414063 9.8765625 -8 9 C-6.66044499 7.48464387 -5.32640675 5.96437817 -4 4.4375 C-1.09230769 1.09230769 -1.09230769 1.09230769 0 0 Z " fill="#3C212F" transform="translate(629,645)"/>
<path d="M0 0 C0.33 0.66 0.66 1.32 1 2 C-1.64 1.67 -4.28 1.34 -7 1 C-7.268125 1.556875 -7.53625 2.11375 -7.8125 2.6875 C-9 5 -9 5 -10.4453125 7.2109375 C-12.22205072 10.3983523 -13.11799455 13.41568007 -14.0625 16.9375 C-15.25604211 21.34258113 -16.51704694 25.68295887 -18 30 C-19.82262501 24.71676249 -17.46873289 20.09711434 -15.8125 15 C-15.50763672 14.00226563 -15.20277344 13.00453125 -14.88867188 11.9765625 C-14.58123047 11.01492187 -14.27378906 10.05328125 -13.95703125 9.0625 C-13.53901245 7.74958984 -13.53901245 7.74958984 -13.11254883 6.41015625 C-10.04615286 -0.23269233 -6.63384536 -0.44225636 0 0 Z " fill="#CE3B40" transform="translate(556,186)"/>
<path d="M0 0 C3.53519701 3.53519701 3.89284362 3.91057679 4.375 8.8125 C4.36154915 12.50475786 4.05146597 12.93824083 1.5 16 C0.675 16.66 -0.15 17.32 -1 18 C-1.99 17.67 -2.98 17.34 -4 17 C-3.01 15.515 -3.01 15.515 -2 14 C-1.34 14 -0.68 14 0 14 C0 9.38 0 4.76 0 0 Z " fill="#332434" transform="translate(854,522)"/>
<path d="M0 0 C8.25798142 0.89760668 15.60744489 3.2177625 23 7 C25.73572585 7.69907414 25.73572585 7.69907414 28 8 C28 8.66 28 9.32 28 10 C29.32 10.33 30.64 10.66 32 11 C30 12 30 12 27.01904297 11.10375977 C25.75719073 10.64080549 24.49841159 10.1694217 23.2421875 9.69140625 C22.24761032 9.32304909 22.24761032 9.32304909 21.23294067 8.94725037 C19.11089844 8.15944754 16.99299112 7.36112219 14.875 6.5625 C13.43906148 6.02729832 12.00286651 5.49278415 10.56640625 4.95898438 C7.04124294 3.64728906 3.51975274 2.32614182 0 1 C0 0.67 0 0.34 0 0 Z " fill="#CA3B3E" transform="translate(267,531)"/>
<path d="M0 0 C-6.63832725 2.34964848 -13.05499671 4.40436037 -20.0390625 5.41015625 C-22.38614305 5.88912638 -22.38614305 5.88912638 -24 9 C-24.02749478 11.06910593 -24.02749478 11.06910593 -23.625 13.1875 C-23.41875 14.445625 -23.2125 15.70375 -23 17 C-25.45179712 15.16115216 -25.96567755 14.19735411 -26.5 11.125 C-25.81810712 6.86316947 -24.32551451 5.71576477 -21 3 C-18.20746728 1.8606354 -15.38694212 1.22754697 -12.4375 0.625 C-11.68275391 0.44839844 -10.92800781 0.27179688 -10.15039062 0.08984375 C-6.40675752 -0.73474504 -3.6594914 -1.12153098 0 0 Z " fill="#C03C42" transform="translate(240,497)"/>
<path d="M0 0 C-1 2 -1 2 -3.30078125 2.81640625 C-10.53926874 4.60959835 -17.55335584 5.61710518 -25 6 C-20.90019754 3.26679836 -16.68504066 2.48025527 -11.9375 1.3125 C-10.55208008 0.95575195 -10.55208008 0.95575195 -9.13867188 0.59179688 C-7.81512695 0.26211914 -7.81512695 0.26211914 -6.46484375 -0.07421875 C-5.656521 -0.27619873 -4.84819824 -0.47817871 -4.01538086 -0.6862793 C-2 -1 -2 -1 0 0 Z " fill="#432230" transform="translate(851,539)"/>
<path d="M0 0 C0.66 0.33 1.32 0.66 2 1 C1.195625 1.45375 0.39125 1.9075 -0.4375 2.375 C-3.08856572 3.74725665 -3.08856572 3.74725665 -4 6 C-6.36328125 6.78125 -6.36328125 6.78125 -9.3125 7.5 C-13.34381742 8.47633527 -13.34381742 8.47633527 -17.10546875 10.15625 C-19.49569739 11.2207642 -20.55103064 10.71940659 -23 10 C-19.21388115 8.29984684 -15.42029661 6.61705366 -11.625 4.9375 C-10.00464844 4.20950195 -10.00464844 4.20950195 -8.3515625 3.46679688 C-7.3203125 3.01240234 -6.2890625 2.55800781 -5.2265625 2.08984375 C-4.27346191 1.66566162 -3.32036133 1.24147949 -2.33837891 0.80444336 C-1.56671387 0.53897705 -0.79504883 0.27351074 0 0 Z " fill="#4C212F" transform="translate(750,570)"/>
<path d="M0 0 C-2.62437839 1.74958559 -4.18203372 2.4748682 -7.125 3.2890625 C-7.91390625 3.50820313 -8.7028125 3.72734375 -9.515625 3.953125 C-10.33546875 4.17484375 -11.1553125 4.3965625 -12 4.625 C-13.22976563 4.96917969 -13.22976563 4.96917969 -14.484375 5.3203125 C-20.60323661 7 -20.60323661 7 -24 7 C-24 6.34 -24 5.68 -24 5 C-16.15960049 2.21971649 -8.41687658 -0.4316347 0 0 Z " fill="#D83C40" transform="translate(836,541)"/>
<path d="M0 0 C0.66 0 1.32 0 2 0 C3.02611949 1.65071396 4.02308143 3.31970006 5 5 C5.49242187 5.433125 5.98484375 5.86625 6.4921875 6.3125 C8.53201063 8.59541086 8.95764398 10.73332086 9.6875 13.6875 C10.06455078 15.17830078 10.06455078 15.17830078 10.44921875 16.69921875 C10.63097656 17.45847656 10.81273437 18.21773438 11 19 C8.72753662 16.9086545 7.30897727 14.97741243 5.95703125 12.20703125 C5.60576172 11.49482422 5.25449219 10.78261719 4.89257812 10.04882812 C4.53615234 9.31083984 4.17972656 8.57285156 3.8125 7.8125 C3.44447266 7.06291016 3.07644531 6.31332031 2.69726562 5.54101562 C1.79271782 3.69667788 0.89562424 1.84868755 0 0 Z " fill="#44212D" transform="translate(616,347)"/>
<path d="M0 0 C2.15178156 2.76387192 3.98370421 5.56533069 5.6875 8.625 C6.34298828 9.78902344 6.34298828 9.78902344 7.01171875 10.9765625 C8 13 8 13 8 15 C6.140625 14.80078125 6.140625 14.80078125 4 14 C2.734375 11.85546875 2.734375 11.85546875 1.75 9.1875 C1.41484375 8.31480469 1.0796875 7.44210937 0.734375 6.54296875 C0 4 0 4 0 0 Z " fill="#302534" transform="translate(625,358)"/>
<path d="M0 0 C3.08358247 3.08358247 4.13333128 6.97597998 5.6875 11 C6.02072266 11.83273437 6.35394531 12.66546875 6.69726562 13.5234375 C7.00728516 14.32007813 7.31730469 15.11671875 7.63671875 15.9375 C7.92248779 16.66839844 8.20825684 17.39929688 8.50268555 18.15234375 C9 20 9 20 8 22 C3.85159404 15.06412759 0 8.23815113 0 0 Z " fill="#CD3B3F" transform="translate(586,280)"/>
<path d="M0 0 C1.25127906 3.54667178 0.72285053 5.72253438 -0.4375 9.25 C-0.72496094 10.14203125 -1.01242187 11.0340625 -1.30859375 11.953125 C-1.53675781 12.62859375 -1.76492188 13.3040625 -2 14 C-4.43679946 10.34480082 -4.11604695 9.01377491 -3.4921875 4.875 C-2.88185633 2.54992888 -1.96966795 1.37020379 0 0 Z " fill="#20283A" transform="translate(537,828)"/>
<path d="M0 0 C0.33 0 0.66 0 1 0 C1 1.65 1 3.3 1 5 C0.34 5 -0.32 5 -1 5 C-0.9175 5.639375 -0.835 6.27875 -0.75 6.9375 C-1.21853341 12.67703433 -3.69958984 18.13086307 -8 22 C-5.92957946 14.39162534 -3.14169523 7.2271408 0 0 Z " fill="#CF3B3F" transform="translate(530,235)"/>
<path d="M0 0 C0.625 1.8125 0.625 1.8125 1 4 C0.01 5.485 0.01 5.485 -1 7 C-1.66 7 -2.32 7 -3 7 C-3 7.99 -3 8.98 -3 10 C-3.66 10 -4.32 10 -5 10 C-5 11.32 -5 12.64 -5 14 C-5.66 14 -6.32 14 -7 14 C-7 14.99 -7 15.98 -7 17 C-7.66 17 -8.32 17 -9 17 C-7.68925635 12.53817564 -5.92933989 9.00381243 -3.375 5.125 C-2.74335937 4.15820312 -2.11171875 3.19140625 -1.4609375 2.1953125 C-0.73777344 1.10863281 -0.73777344 1.10863281 0 0 Z " fill="#431F2C" transform="translate(592,694)"/>
<path d="M0 0 C1 2 1 2 0.00390625 5.0390625 C-0.47175781 6.22242188 -0.94742188 7.40578125 -1.4375 8.625 C-1.91058594 9.81351563 -2.38367188 11.00203125 -2.87109375 12.2265625 C-3.24363281 13.14179687 -3.61617187 14.05703125 -4 15 C-4.33 15 -4.66 15 -5 15 C-4.7242265 8.7950962 -3.89359206 4.89839001 0 0 Z " fill="#20283A" transform="translate(556,772)"/>
<path d="M0 0 C3.12290635 0.48578543 5.99580359 0.9986012 9 2 C9 2.66 9 3.32 9 4 C9.78375 4.103125 10.5675 4.20625 11.375 4.3125 C14 5 14 5 16 8 C10.31497465 6.35433477 5.23318364 3.70967216 0 1 C0 0.67 0 0.34 0 0 Z " fill="#D13B3E" transform="translate(322,553)"/>
<path d="M0 0 C0.33 0.66 0.66 1.32 1 2 C1.66 2 2.32 2 3 2 C3.36504603 3.58086048 3.71660506 5.16483907 4.0625 6.75 C4.25972656 7.63171875 4.45695312 8.5134375 4.66015625 9.421875 C4.99825872 11.98679028 4.81158635 13.57091639 4 16 C3.32586789 14.08594633 2.6609668 12.16863974 2 10.25 C1.62875 9.18265625 1.2575 8.1153125 0.875 7.015625 C0 4 0 4 0 0 Z " fill="#332333" transform="translate(490,770)"/>
<path d="M0 0 C-0.33 1.65 -0.66 3.3 -1 5 C-1.886875 4.979375 -2.77375 4.95875 -3.6875 4.9375 C-6.62169631 4.99286219 -9.15493696 5.3305734 -12 6 C-10.66144904 3.32289809 -9.27941912 3.04870906 -6.5625 1.875 C-5.75941406 1.52179688 -4.95632813 1.16859375 -4.12890625 0.8046875 C-2 0 -2 0 0 0 Z " fill="#DE393D" transform="translate(331,463)"/>
<path d="M0 0 C1.3656528 3.10375636 0.93171529 4.17884091 -0.3125 7.4375 C-0.869375 8.613125 -1.42625 9.78875 -2 11 C-2.67276716 12.6642135 -3.34206835 14.32986582 -4 16 C-4.66 16 -5.32 16 -6 16 C-4.25192871 10.53262809 -2.34205919 5.24175152 0 0 Z " fill="#CE3A40" transform="translate(519,262)"/>
<path d="M0 0 C0.33 0.66 0.66 1.32 1 2 C0.06409496 3.1055189 -0.87379858 4.20935453 -1.8125 5.3125 C-2.33457031 5.92738281 -2.85664062 6.54226563 -3.39453125 7.17578125 C-4.87172469 8.85424679 -6.40039131 10.43882034 -8 12 C-8.33 11.01 -8.66 10.02 -9 9 C-8.01 8.34 -7.02 7.68 -6 7 C-5.505 6.175 -5.01 5.35 -4.5 4.5 C-3 2 -3 2 0 0 Z " fill="#1F293A" transform="translate(620,659)"/>
<path d="M0 0 C0.99 0.33 1.98 0.66 3 1 C0.03 4.96 0.03 4.96 -3 9 C-4.32 8.67 -5.64 8.34 -7 8 C-4.69 5.36 -2.38 2.72 0 0 Z " fill="#20293B" transform="translate(630,645)"/>
<path d="M0 0 C5.46864457 1.01591421 10.76390013 2.07091057 16 4 C12.42355152 5.2380014 9.66305234 4.74926071 6 4 C6 3.34 6 2.68 6 2 C3.03 1.505 3.03 1.505 0 1 C0 0.67 0 0.34 0 0 Z " fill="#4F1F2C" transform="translate(240,523)"/>
<path d="M0 0 C-1.89248819 0.67610423 -3.7891602 1.34050439 -5.6875 2 C-7.27111328 2.556875 -7.27111328 2.556875 -8.88671875 3.125 C-11.78362056 3.9391857 -14.01700623 4.17709796 -17 4 C-12.54893918 -0.25753644 -5.84870929 -1.86095295 0 0 Z " fill="#D3393F" transform="translate(240,497)"/>
<path d="M0 0 C0.66 0.99 1.32 1.98 2 3 C0.625 5 0.625 5 -1 7 C-1.66 7 -2.32 7 -3 7 C-3 7.99 -3 8.98 -3 10 C-3.99 10.33 -4.98 10.66 -6 11 C-4.54955729 6.89041233 -2.48889248 3.56741255 0 0 Z " fill="#DC3A3C" transform="translate(488,324)"/>
<path d="M0 0 C1.26937991 3.53324217 0.7575638 5.33100318 -0.8125 8.6875 C-1.16957031 9.47511719 -1.52664063 10.26273438 -1.89453125 11.07421875 C-3 13 -3 13 -5 14 C-4.54636829 12.41531323 -4.08688548 10.83230076 -3.625 9.25 C-3.36976563 8.36828125 -3.11453125 7.4865625 -2.8515625 6.578125 C-2.0790066 4.23919428 -1.16374324 2.16557438 0 0 Z " fill="#4D1E2A" transform="translate(562,751)"/>
<path d="M0 0 C0 0.66 0 1.32 0 2 C-1.58086048 2.36504603 -3.16483907 2.71660506 -4.75 3.0625 C-5.63171875 3.25972656 -6.5134375 3.45695313 -7.421875 3.66015625 C-9.98679028 3.99825872 -11.57091639 3.81158635 -14 3 C-12.4188708 2.49307308 -10.83498617 1.99473557 -9.25 1.5 C-7.92742188 1.08234375 -7.92742188 1.08234375 -6.578125 0.65625 C-4 0 -4 0 0 0 Z " fill="#50202B" transform="translate(840,541)"/>
<path d="M0 0 C4.875 4.75 4.875 4.75 6 7 C2.06326356 5.68775452 -0.22719294 4.08089673 -3 1 C-2.01 0.67 -1.02 0.34 0 0 Z " fill="#40212F" transform="translate(703,454)"/>
<path d="M0 0 C0.66 0.33 1.32 0.66 2 1 C0.70519111 3.42776667 -0.35838519 4.76967674 -2.98046875 5.7109375 C-4.9738726 6.19782198 -6.98658625 6.60391861 -9 7 C-6.25604436 4.05278838 -3.61662784 1.80831392 0 0 Z " fill="#2F2533" transform="translate(379,432)"/>
<path d="M0 0 C2.38672669 2.96283313 4.7353371 5.94270509 7 9 C6.67 9.66 6.34 10.32 6 11 C3.5625 9.4375 3.5625 9.4375 1 7 C0.1875 3.25 0.1875 3.25 0 0 Z " fill="#2C2537" transform="translate(641,386)"/>
<path d="M0 0 C2.31 0 4.62 0 7 0 C7 0.66 7 1.32 7 2 C9.97 2.495 9.97 2.495 13 3 C13 3.66 13 4.32 13 5 C11.20620902 4.55005243 9.41501072 4.08975857 7.625 3.625 C6.62726563 3.36976563 5.62953125 3.11453125 4.6015625 2.8515625 C2 2 2 2 0 0 Z " fill="#2B2535" transform="translate(233,522)"/>
<path d="M0 0 C0.66 0.33 1.32 0.66 2 1 C-1.0657052 5.65987191 -3.58657319 6.85485202 -9 8 C-6.14723863 5.06799526 -3.34920216 2.35684596 0 0 Z " fill="#D63A3C" transform="translate(402,419)"/>
<path d="M0 0 C0 3 0 3 -1.375 4.4375 C-1.91125 4.953125 -2.4475 5.46875 -3 6 C-4.17574711 8.09989652 -4.17574711 8.09989652 -5 10 C-6.32 9.67 -7.64 9.34 -9 9 C-6.03 6.03 -3.06 3.06 0 0 Z " fill="#D53B40" transform="translate(448,378)"/>
<path d="M0 0 C4.64322514 4.49344368 4.76182476 8.86698764 5 15 C3.25050228 12.37575342 2.34610019 10.44272784 1.375 7.5 C0.98441406 6.33984375 0.98441406 6.33984375 0.5859375 5.15625 C0 3 0 3 0 0 Z " fill="#D63C41" transform="translate(489,760)"/>
<path d="M0 0 C1.21386936 3.64160808 0.6674695 4.33165469 -0.9375 7.6875 C-1.31777344 8.49574219 -1.69804688 9.30398438 -2.08984375 10.13671875 C-2.39019531 10.75160156 -2.69054687 11.36648438 -3 12 C-3.33 12 -3.66 12 -4 12 C-4 10.02 -4 8.04 -4 6 C-3.34 6 -2.68 6 -2 6 C-2 4.68 -2 3.36 -2 2 C-1.34 2 -0.68 2 0 2 C0 1.34 0 0.68 0 0 Z " fill="#D93A40" transform="translate(559,755)"/>
<path d="M0 0 C-1.59915881 0.69906942 -3.20455045 1.38389468 -4.8125 2.0625 C-5.70582031 2.44535156 -6.59914063 2.82820312 -7.51953125 3.22265625 C-10 4 -10 4 -13 3 C-8.98855946 -0.54858201 -5.15029942 -1.71676647 0 0 Z " fill="#2A2436" transform="translate(785,560)"/>
<path d="M0 0 C5.445 1.485 5.445 1.485 11 3 C11 3.33 11 3.66 11 4 C3.57142857 4.28571429 3.57142857 4.28571429 0 2 C0 1.34 0 0.68 0 0 Z " fill="#352231" transform="translate(809,507)"/>
<path d="M0 0 C0.99 0 1.98 0 3 0 C3.99 3.3 4.98 6.6 6 10 C3.36335259 7.36335259 1.744776 5.24029829 0 2 C0 1.34 0 0.68 0 0 Z " fill="#461F2F" transform="translate(631,373)"/>
<path d="M0 0 C3.09592835 3.5087188 4.74194623 6.49197399 6 11 C5.34 11 4.68 11 4 11 C4 10.01 4 9.02 4 8 C3.01 7.67 2.02 7.34 1 7 C0.67 4.69 0.34 2.38 0 0 Z " fill="#D53A3F" transform="translate(617,350)"/>
<path d="M0 0 C3.82097239 0.53069061 6.06171403 1.49701566 9 4 C3.375 4.25 3.375 4.25 0 2 C0 1.34 0 0.68 0 0 Z " fill="#302333" transform="translate(760,487)"/>
<path d="M0 0 C0.66 1.32 1.32 2.64 2 4 C0.02 4.99 0.02 4.99 -2 6 C-2.66 5.34 -3.32 4.68 -4 4 C-2.68 2.68 -1.36 1.36 0 0 Z " fill="#2E2230" transform="translate(634,640)"/>
<path d="M0 0 C-0.66 0 -1.32 0 -2 0 C-2 0.66 -2 1.32 -2 2 C-5.3 2 -8.6 2 -12 2 C-12 1.67 -12 1.34 -12 1 C-3.96428571 -1.27678571 -3.96428571 -1.27678571 0 0 Z " fill="#2E2435" transform="translate(246,493)"/>
<path d="M0 0 C3.08089673 2.77280706 4.68775452 5.06326356 6 9 C5.01 8.34 4.02 7.68 3 7 C3 6.34 3 5.68 3 5 C2.01 5.33 1.02 5.66 0 6 C0 4.02 0 2.04 0 0 Z " fill="#D5393B" transform="translate(642,393)"/>
<path d="M0 0 C2.18975773 3.28463659 2.99806563 6.20696275 4 10 C3.01 9.67 2.02 9.34 1 9 C0.67 6.03 0.34 3.06 0 0 Z " fill="#4E1F2D" transform="translate(480,737)"/>
<path d="M0 0 C-0.33 1.32 -0.66 2.64 -1 4 C-3.31 4 -5.62 4 -8 4 C-2.7826087 0 -2.7826087 0 0 0 Z " fill="#3E1F2E" transform="translate(719,585)"/>
<path d="M0 0 C-0.33 0.99 -0.66 1.98 -1 3 C-2.32 3 -3.64 3 -5 3 C-5 3.66 -5 4.32 -5 5 C-6.32 4.67 -7.64 4.34 -9 4 C-2.25 0 -2.25 0 0 0 Z " fill="#D83A40" transform="translate(360,448)"/>
<path d="M0 0 C0.99 0.33 1.98 0.66 3 1 C3.33 3.97 3.66 6.94 4 10 C1.16625119 6.79663178 0.4794463 4.21912747 0 0 Z " fill="#431E2D" transform="translate(590,287)"/>
<path d="M0 0 C-0.625 1.9375 -0.625 1.9375 -2 4 C-5.125 4.75 -5.125 4.75 -8 5 C-3.16129032 0 -3.16129032 0 0 0 Z " fill="#43202E" transform="translate(679,607)"/>
<path d="M0 0 C2.50298434 2.93828597 3.46930939 5.17902761 4 9 C3.01 8.67 2.02 8.34 1 8 C0.67 5.36 0.34 2.72 0 0 Z " fill="#2A2436" transform="translate(605,319)"/>
</svg>
