<?xml version="1.0" standalone="no"?>
<!DOCTYPE svg PUBLIC "-//W3C//DTD SVG 20010904//EN"
 "http://www.w3.org/TR/2001/REC-SVG-20010904/DTD/svg10.dtd">
<svg version="1.0" xmlns="http://www.w3.org/2000/svg"
 width="1080.000000pt" height="1080.000000pt" viewBox="0 0 1080.000000 1080.000000"
 preserveAspectRatio="xMidYMid meet">

<g transform="translate(0.000000,1080.000000) scale(0.100000,-0.100000)"
fill="#000000" stroke="none">
<path d="M5475 9703 c-111 -7 -347 -45 -460 -72 -358 -88 -716 -265 -1035
-511 -128 -99 -371 -343 -457 -460 -219 -297 -344 -597 -409 -980 -21 -129
-30 -481 -15 -607 16 -128 64 -325 107 -436 109 -284 304 -569 550 -807 309
-298 605 -480 1319 -810 785 -363 1095 -560 1221 -773 63 -107 78 -166 78
-312 1 -147 -13 -215 -68 -331 -39 -83 -138 -193 -223 -250 -179 -118 -463
-184 -798 -184 -188 0 -274 10 -435 50 -204 51 -391 126 -695 280 -344 175
-461 247 -684 421 -73 57 -143 111 -155 120 -21 17 -25 9 -469 -737 -247 -415
-447 -758 -445 -763 7 -18 167 -145 273 -216 61 -40 171 -108 245 -150 162
-93 591 -310 710 -358 369 -152 906 -269 1404 -308 199 -15 680 -7 861 16 495
60 907 181 1265 372 462 246 726 512 940 948 133 270 197 499 241 860 16 136
16 479 0 585 -82 533 -360 947 -939 1397 -302 236 -563 379 -1147 633 -473
205 -841 392 -1060 538 -276 185 -377 373 -331 622 69 377 394 582 926 582
310 0 572 -61 1021 -238 196 -77 301 -128 455 -222 l132 -80 322 637 c178 350
343 673 367 717 l43 81 -167 111 c-93 60 -197 126 -233 145 -260 141 -859 342
-1240 416 -330 64 -733 93 -1015 74z"/>
</g>
</svg>
